<svg xmlns="http://www.w3.org/2000/svg" xmlns:xlink="http://www.w3.org/1999/xlink" fill="none" version="1.1" width="28.93769645690918" height="22.05381202697754" viewBox="0 0 28.93769645690918 22.05381202697754"><g><path d="M24.513,1.84475C22.6128,0.969652,20.6054,0.349372,18.5428,0C18.2856,0.45701,17.985,1.07299,17.778,1.56047C15.5521,1.23208,13.3467,1.23208,11.1615,1.56047C10.9546,1.07299,10.6472,0.45701,10.3877,0C8.32293,0.349769,6.31382,0.97243,4.41314,1.85163C0.634795,7.47076,-0.389112,12.9546,0.122841,18.3573C2.62882,20.2022,5.05729,21.3192,7.44484,22.0538C8.03796,21.2507,8.56256,20.3992,9.01308,19.5082C8.1503,19.1866,7.32436,18.7872,6.54344,18.3268C6.74983,18.176,6.95176,18.019,7.14896,17.8563C11.9104,20.0464,17.084,20.0464,21.7886,17.8563C21.9866,18.0179,22.1883,18.1748,22.3938,18.3268C21.6059,18.7944,20.7779,19.1908,19.9198,19.5116C20.3702,20.4016,20.8948,21.252,21.488,22.0538C23.8779,21.3226,26.3087,20.2022,28.8147,18.3573C29.4155,12.0948,27.7882,6.66178,24.513,1.84475ZM9.6617,15.0365C8.23253,15.0365,7.06011,13.7198,7.06011,12.122C7.06011,10.5208,8.20716,9.20396,9.6617,9.20396C11.1161,9.20396,12.2881,10.5174,12.2633,12.122C12.2656,13.7198,11.1161,15.0365,9.6617,15.0365ZM19.2755,15.0365C17.8463,15.0365,16.6743,13.7198,16.6743,12.122C16.6743,10.5208,17.8215,9.20396,19.2755,9.20396C20.73,9.20396,21.9023,10.5174,21.8771,12.122C21.8771,13.7198,20.73,15.0365,19.2755,15.0365Z" fill-rule="evenodd" fill="#FFFFFF" fill-opacity="1" style="mix-blend-mode:passthrough"/></g></svg>