<?xml version="1.0" encoding="UTF-8"?>
<svg id="_레이어_2" data-name="레이어 2" xmlns="http://www.w3.org/2000/svg" viewBox="0 0 20 20">
  <defs>
    <style>
      .cls-1 {
        fill: #b0b0b0;
        stroke-width: 0px;
      }
    </style>
  </defs>
  <g id="_레이어_1-2" data-name="레이어 1">
    <path class="cls-1" d="m10,0C4.5,0,0,4.5,0,10s4.5,10,10,10,10-4.5,10-10S15.5,0,10,0Zm0,4.6c1.8,0,3.3,1.5,3.3,3.4s-1.5,3.4-3.3,3.4-3.3-1.5-3.3-3.4,1.5-3.4,3.3-3.4Zm0,14.3c-2.3,0-4.5-.9-6.2-2.5,1.7-2.3,3.9-3.5,6.2-3.5s4.5,1.2,6.2,3.5c-1.7,1.6-3.9,2.5-6.2,2.5Z"/>
  </g>
</svg>