<svg xmlns="http://www.w3.org/2000/svg" viewBox="0 0 102.59 26.58"><defs><style>.cls-1{fill:#3d3d3d;}</style></defs><g id="레이어_2" data-name="레이어 2"><g id="레이어_1-2" data-name="레이어 1"><path class="cls-1" d="M9.28,26.19H0V0H9.35a13.81,13.81,0,0,1,6.8,1.57,10.76,10.76,0,0,1,4.39,4.5,14.84,14.84,0,0,1,1.54,7,14.92,14.92,0,0,1-1.54,7,10.7,10.7,0,0,1-4.4,4.51A14,14,0,0,1,9.28,26.19ZM5.52,21.45H9a7.48,7.48,0,0,0,5.62-2c1.28-1.33,1.92-3.45,1.92-6.38s-.64-5-1.92-6.35A7.47,7.47,0,0,0,9,4.75H5.52Zm26-6.61V26.19H26.07V6.54h5.36V10h.19A5.87,5.87,0,0,1,33.75,7.3a6.27,6.27,0,0,1,3.64-1,6.44,6.44,0,0,1,4.93,2,7.6,7.6,0,0,1,1.85,5.42v12.5H38.72V14.66a4,4,0,0,0-.92-2.83,3.27,3.27,0,0,0-2.56-1,3.64,3.64,0,0,0-2.69,1.06A4.08,4.08,0,0,0,31.52,14.84ZM57.39,26.58a10,10,0,0,1-5.14-1.28,8.54,8.54,0,0,1-3.34-3.55,11.41,11.41,0,0,1-1.17-5.3,11.52,11.52,0,0,1,1.17-5.32,8.51,8.51,0,0,1,3.34-3.56,11,11,0,0,1,10.3,0,8.51,8.51,0,0,1,3.34,3.56,11.52,11.52,0,0,1,1.17,5.32,11.41,11.41,0,0,1-1.17,5.3,8.54,8.54,0,0,1-3.34,3.55A10,10,0,0,1,57.39,26.58ZM53.28,16.42a7.89,7.89,0,0,0,1,4.23,3.68,3.68,0,0,0,6.17,0,7.89,7.89,0,0,0,1-4.23,7.83,7.83,0,0,0-1-4.22,3.71,3.71,0,0,0-6.17,0A7.83,7.83,0,0,0,53.28,16.42ZM81.07,6.54v4.11H77.34v9.49a1.67,1.67,0,0,0,1.87,1.92,5.89,5.89,0,0,0,.69,0c.25,0,.47-.08.66-.13L81.42,26a11.94,11.94,0,0,1-3.37.51A6.47,6.47,0,0,1,73.52,25a5.36,5.36,0,0,1-1.61-4.13V10.65H69.24V6.54h2.67V1.86h5.43V6.54Zm12.5,20a10.39,10.39,0,0,1-5.2-1.23A8.25,8.25,0,0,1,85,21.84a11.52,11.52,0,0,1-1.18-5.39A11.54,11.54,0,0,1,85,11.14a8.71,8.71,0,0,1,3.29-3.56,9.48,9.48,0,0,1,5-1.29A9.92,9.92,0,0,1,98,7.4a8.21,8.21,0,0,1,3.34,3.32,11.35,11.35,0,0,1,1.24,5.56v1.47H89.19a5.15,5.15,0,0,0,1.3,3.5,4.18,4.18,0,0,0,3.17,1.27A4.58,4.58,0,0,0,96,21.94a3.24,3.24,0,0,0,1.39-1.69l5,.33a7,7,0,0,1-2.89,4.35A10,10,0,0,1,93.57,26.58ZM89.23,14.4h8.14a5,5,0,0,0-1.2-3,3.66,3.66,0,0,0-2.81-1.09,3.74,3.74,0,0,0-2.89,1.14A4.73,4.73,0,0,0,89.23,14.4Z"/></g></g></svg>