<svg xmlns="http://www.w3.org/2000/svg" xmlns:xlink="http://www.w3.org/1999/xlink" fill="none" version="1.1" width="107" height="65" viewBox="0 0 107 65"><g><path d="M11.5664,44L2.28516,44L2.28516,17.8086L11.6367,17.8086Q15.5918,17.8086,18.4395,19.3818Q21.2871,20.9551,22.8252,23.8818Q24.3633,26.8086,24.3633,30.8867Q24.3633,34.9824,22.8252,37.918Q21.2871,40.8535,18.4219,42.4268Q15.5566,44,11.5664,44ZM7.80469,39.2539L11.3203,39.2539Q15.0293,39.2539,16.9453,37.2676Q18.8613,35.2812,18.8613,30.8867Q18.8613,26.5273,16.9453,24.541Q15.0293,22.5547,11.3203,22.5547L7.80469,22.5547L7.80469,39.2539ZM33.8027,32.6445L33.8027,44L28.3535,44L28.3535,24.3477L33.7148,24.3477L33.7148,27.8457L33.9082,27.8457Q34.5762,26.123,36.0352,25.1123Q37.4941,24.1016,39.6738,24.1016Q42.75,24.1016,44.6045,26.0791Q46.459,28.0566,46.459,31.502L46.459,44L41.0098,44L41.0098,32.4688Q41.0098,30.6582,40.0869,29.6387Q39.1641,28.6191,37.5293,28.6191Q35.877,28.6191,34.8398,29.6826Q33.8027,30.7461,33.8027,32.6445ZM59.6777,44.3867Q56.707,44.3867,54.5361,43.1123Q52.3652,41.8379,51.1963,39.5615Q50.0273,37.2852,50.0273,34.2617Q50.0273,31.2207,51.1963,28.9355Q52.3652,26.6504,54.5361,25.376Q56.707,24.1016,59.6777,24.1016Q62.666,24.1016,64.8369,25.376Q67.0078,26.6504,68.1768,28.9355Q69.3457,31.2207,69.3457,34.2617Q69.3457,37.2852,68.1768,39.5615Q67.0078,41.8379,64.8369,43.1123Q62.666,44.3867,59.6777,44.3867ZM55.5645,34.2266Q55.5645,36.793,56.6016,38.4629Q57.6387,40.1328,59.6953,40.1328Q61.7344,40.1328,62.7715,38.4629Q63.8086,36.793,63.8086,34.2266Q63.8086,31.6602,62.7715,30.0078Q61.7344,28.3555,59.6953,28.3555Q57.6387,28.3555,56.6016,30.0078Q55.5645,31.6602,55.5645,34.2266ZM83.3555,24.3477L83.3555,28.4609L79.6289,28.4609L79.6289,37.9531Q79.6289,39.8691,81.4922,39.8691Q81.8086,39.8691,82.1865,39.8164Q82.5645,39.7637,82.8457,39.6934L83.707,43.7715Q81.9668,44.2812,80.332,44.2812Q77.4141,44.2812,75.8057,42.8047Q74.1973,41.3281,74.1973,38.6738L74.1973,28.4609L71.5254,28.4609L71.5254,24.3477L74.1973,24.3477L74.1973,19.6719L79.6289,19.6719L79.6289,24.3477L83.3555,24.3477ZM95.8535,44.3867Q92.8301,44.3867,90.6504,43.1562Q88.4707,41.9258,87.293,39.6494Q86.1152,37.373,86.1152,34.2617Q86.1152,31.2383,87.2842,28.9531Q88.4531,26.668,90.5801,25.3848Q92.707,24.1016,95.5898,24.1016Q98.1914,24.1016,100.292,25.209Q102.393,26.3164,103.632,28.5312Q104.871,30.7461,104.871,34.0859L104.871,35.5625L91.4766,35.5625Q91.5645,37.7949,92.7773,39.0605Q93.9902,40.3262,95.9414,40.3262Q97.2949,40.3262,98.2705,39.7461Q99.2461,39.166,99.668,38.0586L104.695,38.3926Q104.115,41.0996,101.804,42.7432Q99.4922,44.3867,95.8535,44.3867ZM91.5117,32.2051L99.6504,32.2051Q99.457,30.3418,98.4551,29.252Q97.4531,28.1621,95.6426,28.1621Q93.8145,28.1621,92.751,29.2959Q91.6875,30.4297,91.5117,32.2051Z" fill="#3D3D3D" fill-opacity="1"/></g></svg>