<svg xmlns="http://www.w3.org/2000/svg" viewBox="0 0 58 58"><defs><style>.cls-1,.cls-2{fill:none;stroke:#afafaf;stroke-linecap:round;stroke-linejoin:round;}.cls-1{stroke-width:7px;}.cls-2{stroke-width:5px;}</style></defs><g id="레이어_2" data-name="레이어 2"><g id="Layer_1" data-name="Layer 1"><path class="cls-1" d="M40.2,40.2A21.16,21.16,0,0,0,46.5,25,21,21,0,0,0,40.2,9.8,20.77,20.77,0,0,0,25,3.5,20.61,20.61,0,0,0,9.8,9.8,20.23,20.23,0,0,0,3.5,25,20.39,20.39,0,0,0,9.8,40.2,20.61,20.61,0,0,0,25,46.5a20.77,20.77,0,0,0,15.2-6.3"/><line class="cls-1" x1="40.2" y1="40.2" x2="54.5" y2="54.5"/><line class="cls-2" x1="33.02" y1="24.3" x2="16.68" y2="24.3"/></g></g></svg>