<svg xmlns="http://www.w3.org/2000/svg" xmlns:xlink="http://www.w3.org/1999/xlink" fill="none" version="1.1" width="26.666667938232422" height="26.666667938232422" viewBox="0 0 26.666667938232422 26.666667938232422"><g><path d="M13.32,0C5.96,0,0,5.97333,0,13.3333C0,20.6933,5.96,26.6667,13.32,26.6667C20.6933,26.6667,26.6667,20.6933,26.6667,13.3333C26.6667,5.97333,20.6933,0,13.32,0ZM13.3333,24C7.44,24,2.66667,19.2267,2.66667,13.3333C2.66667,7.44,7.44,2.66667,13.3333,2.66667C19.2267,2.66667,24,7.44,24,13.3333C24,19.2267,19.2267,24,13.3333,24ZM12,17.3333L14.6667,17.3333L14.6667,20L12,20L12,17.3333ZM12,6.66667L14.6667,6.66667L14.6667,14.6667L12,14.6667L12,6.66667Z" fill="#FF3C26" fill-opacity="1" style="mix-blend-mode:passthrough"/></g></svg>