<svg xmlns="http://www.w3.org/2000/svg" xmlns:xlink="http://www.w3.org/1999/xlink" fill="none" version="1.1" width="18.031665802001953" height="15" viewBox="0 0 18.031665802001953 15"><g><path d="M0,7.5C0.783333,3.23333,4.5225,0,9.01583,0C13.5092,0,17.2475,3.23333,18.0317,7.5C17.2483,11.7667,13.5092,15,9.01583,15C4.5225,15,0.784166,11.7667,0,7.5ZM9.01583,11.6667C11.317,11.6667,13.1825,9.80119,13.1825,7.5C13.1825,5.19881,11.317,3.33333,9.01583,3.33333C6.71465,3.33333,4.84917,5.19881,4.84917,7.5C4.84917,9.80119,6.71465,11.6667,9.01583,11.6667ZM9.01583,10C7.63512,10,6.51583,8.88071,6.51583,7.5C6.51583,6.11929,7.63512,5,9.01583,5C10.3965,5,11.5158,6.11929,11.5158,7.5C11.5158,8.88071,10.3965,10,9.01583,10Z" fill="#D8D8D8" fill-opacity="1" style="mix-blend-mode:passthrough"/></g></svg>