<svg xmlns="http://www.w3.org/2000/svg" xmlns:xlink="http://www.w3.org/1999/xlink" fill="none" version="1.1" width="23.5625" height="23.5625" viewBox="0 0 23.5625 23.5625"><g><path d="M20.1146,15.2292L23.5625,11.7813L20.1146,8.33333L20.1146,3.44792L15.2292,3.44792L11.7813,0L8.33333,3.44792L3.44792,3.44792L3.44792,8.33333L0,11.7813L3.44792,15.2292L3.44792,20.1146L8.33333,20.1146L11.7813,23.5625L15.2292,20.1146L20.1146,20.1146L20.1146,15.2292ZM11.7813,18.0313C8.33333,18.0313,5.53125,15.2292,5.53125,11.7813C5.53125,8.33333,8.33333,5.53125,11.7813,5.53125C15.2292,5.53125,18.0313,8.33333,18.0313,11.7813C18.0313,15.2292,15.2292,18.0313,11.7813,18.0313Z" fill="#000000" fill-opacity="1" style="mix-blend-mode:passthrough"/></g></svg>