<svg xmlns="http://www.w3.org/2000/svg" xmlns:xlink="http://www.w3.org/1999/xlink" fill="none" version="1.1" width="33.333335876464844" height="32.51021957397461" viewBox="0 0 33.333335876464844 32.51021957397461"><g><path d="M16.6667,0C7.45834,0,0.00000238419,7.45833,0.00000238419,16.6667C-0.00387112,23.8423,4.58817,30.214,11.3967,32.48C12.23,32.625,12.5417,32.125,12.5417,31.6867C12.5417,31.2917,12.52,29.98,12.52,28.5833C8.33333,29.355,7.25,27.5633,6.91667,26.625C6.72834,26.145,5.91667,24.6667,5.20834,24.27C4.625,23.9583,3.79167,23.1867,5.18667,23.1667C6.5,23.145,7.43667,24.375,7.75,24.875C9.25,27.395,11.6467,26.6867,12.6033,26.25C12.75,25.1667,13.1867,24.4383,13.6667,24.0217C9.95834,23.605,6.08334,22.1667,6.08334,15.7917C6.08334,13.9783,6.72834,12.48,7.79167,11.3117C7.625,10.895,7.04167,9.18667,7.95834,6.895Q9.35334,6.45834,12.5417,8.60501C13.8984,8.22844,15.3003,8.03891,16.7083,8.04167C18.125,8.04167,19.5417,8.22834,20.875,8.60334Q24.0617,6.43667,25.4583,6.89667C26.375,9.18834,25.7917,10.8967,25.625,11.3133C26.6867,12.48,27.3333,13.9583,27.3333,15.7917C27.3333,22.1883,23.4383,23.605,19.73,24.0217C20.3333,24.5417,20.855,25.5417,20.855,27.105C20.855,29.3333,20.8333,31.125,20.8333,31.6883C20.8333,32.125,21.1467,32.645,21.98,32.4783C28.7637,30.188,33.3314,23.8266,33.3333,16.6667C33.3333,7.45833,25.875,0,16.6667,0Z" fill="#AFAFAF" fill-opacity="1" style="mix-blend-mode:passthrough"/></g></svg>