<svg xmlns="http://www.w3.org/2000/svg" xmlns:xlink="http://www.w3.org/1999/xlink" fill="none" version="1.1" width="14.666667938232422" height="13.226640701293945" viewBox="0 0 14.666667938232422 13.226640701293945"><g><path d="M0.666667,5.22664L2.66667,5.22664L2.66667,13.2266L0.666667,13.2266C0.298477,13.2266,0,12.9282,0,12.56L0,5.89331C0,5.52512,0.298477,5.22664,0.666667,5.22664ZM4.19533,4.36464L8.462,0.0979734C8.57924,-0.0196074,8.76515,-0.0329676,8.898,0.0666401L9.46667,0.493307C9.78962,0.735752,9.93505,1.14865,9.83533,1.53997L9.06667,4.55997L13.3333,4.55997C14.0697,4.55997,14.6667,5.15693,14.6667,5.89331L14.6667,7.29597C14.6668,7.47021,14.6329,7.6428,14.5667,7.80397L12.5033,12.814C12.4004,13.0638,12.1569,13.2268,11.8867,13.2266L4.66667,13.2266C4.29848,13.2266,4,12.9282,4,12.56L4,4.83597C4.00004,4.65918,4.0703,4.48964,4.19533,4.36464Z" fill="#D8D8D8" fill-opacity="1" style="mix-blend-mode:passthrough"/></g></svg>