<svg xmlns="http://www.w3.org/2000/svg" xmlns:xlink="http://www.w3.org/1999/xlink" fill="none" version="1.1" width="13.5" height="10.5" viewBox="0 0 13.5 10.5"><g><path d="M13.1554,2.111852Q13.3213,1.937548,13.4107,1.714099Q13.5,1.49065,13.5,1.25Q13.5,1.1885914,13.494,1.127479Q13.488,1.066366,13.476,1.006137Q13.464,0.945909,13.4462,0.8871439999999999Q13.4283,0.82838,13.4048,0.771646Q13.3813,0.714912,13.3524,0.660754Q13.3235,0.606597,13.2893,0.555537Q13.2552,0.504478,13.2163,0.45700799999999997Q13.1773,0.409539,13.1339,0.366117Q13.0905,0.32269400000000004,13.043,0.283737Q12.9955,0.24478,12.9445,0.21066000000000007Q12.8934,0.17654999999999998,12.8392,0.14759999999999995Q12.7851,0.11864999999999992,12.7284,0.09515000000000007Q12.6716,0.07164999999999999,12.6129,0.05381999999999998Q12.5541,0.03600000000000003,12.4939,0.02401999999999993Q12.4336,0.01204000000000005,12.3725,0.006019999999999914Q12.3114,0,12.25,0Q12.123,0,11.9986,0.025539999999999896Q11.8742,0.05109000000000008,11.7575,0.10112999999999994Q11.6407,0.15117000000000003,11.5365,0.22367000000000004Q11.4322,0.296161,11.3446,0.38814800000000005L11.3443,0.388463L4.63462,7.43704L2.1556699999999998,4.8329L2.155379,4.83259Q2.067815,4.74061,1.963539,4.66811Q1.8592629999999999,4.595610000000001,1.742537,4.54557Q1.6258110000000001,4.4955300000000005,1.501406,4.46999Q1.377001,4.44444,1.25,4.44444Q1.1885914,4.44444,1.127479,4.45046Q1.066366,4.45648,1.006137,4.46846Q0.945909,4.48044,0.8871439999999999,4.49827Q0.82838,4.51609,0.771646,4.5395900000000005Q0.714912,4.56309,0.660754,4.59204Q0.606597,4.62099,0.555537,4.6551100000000005Q0.504478,4.689220000000001,0.45700799999999997,4.72818Q0.409539,4.7671399999999995,0.366117,4.810560000000001Q0.32269400000000004,4.85398,0.283737,4.9014500000000005Q0.24478,4.94892,0.21066000000000007,4.99998Q0.17654999999999998,5.05104,0.14759999999999995,5.1052Q0.11864999999999992,5.1593599999999995,0.09515000000000007,5.2160899999999994Q0.07164999999999999,5.27282,0.05381999999999998,5.33159Q0.03600000000000003,5.39035,0.02401999999999993,5.45058Q0.01204000000000005,5.51081,0.006019999999999914,5.57192Q0,5.63304,0,5.69444Q0,5.93509,0.08935000000000004,6.15854Q0.17870000000000008,6.38199,0.34462099999999996,6.5563L3.72924,10.11185Q3.75046,10.13415,3.77276,10.15538Q3.86194,10.24026,3.96595,10.30612Q4.06997,10.37198,4.1848399999999994,10.41628Q4.29971,10.46058,4.42101,10.48161Q4.54232,10.50265,4.66539,10.49962Q4.78847,10.49659,4.90859,10.46961Q5.02871,10.44262,5.14126,10.39272Q5.25381,10.34282,5.35446,10.27192Q5.45511,10.20102,5.53999,10.11185L13.1551,2.112166L13.1554,2.111852L13.1554,2.111852Z" fill-rule="evenodd" fill="#FFFFFF" fill-opacity="1"/></g></svg>