<svg xmlns="http://www.w3.org/2000/svg" xmlns:xlink="http://www.w3.org/1999/xlink" fill="none" version="1.1" width="20" height="20" viewBox="0 0 20 20"><defs><clipPath id="master_svg0_1_8331"><rect x="0" y="0" width="20" height="20" rx="0"/></clipPath></defs><g clip-path="url(#master_svg0_1_8331)"><g><path d="M2.89546034375,3.7762925859375Q2.80755334375,3.6883845859375,2.75997734375,3.5735275859375Q2.71240234375,3.4586705859375,2.71240234375,3.3343505859375Q2.71240234375,3.2727934859375,2.72441134375,3.2124195859375Q2.73642034375,3.1520445859375,2.75997734375,3.0951735859375Q2.78353434375,3.0383025859375,2.8177343437499998,2.9871195859375Q2.85193334375,2.9359365859375,2.89546034375,2.8924085859375Q2.93898834375,2.8488815859375,2.99017134375,2.8146825859374998Q3.04135434375,2.7804825859375,3.09822534375,2.7569255859375Q3.15509634375,2.7333685859375,3.21547134375,2.7213595859375Q3.27584524375,2.7093505859375,3.33740234375,2.7093505859375Q3.46172234375,2.7093505859375,3.57657934375,2.7569255859375Q3.69143634375,2.8045015859375,3.77934434375,2.8924085859375L17.11270234375,16.2257505859375Q17.20060234375,16.313650585937502,17.248202343750002,16.4285505859375Q17.29570234375,16.5433505859375,17.29570234375,16.6676505859375Q17.29570234375,16.7292505859375,17.28370234375,16.7896505859375Q17.27170234375,16.8499505859375,17.248202343750002,16.906850585937498Q17.22460234375,16.9637505859375,17.19040234375,17.0149505859375Q17.15620234375,17.0660505859375,17.11270234375,17.1096505859375Q17.06910234375,17.1531505859375,17.01800234375,17.1873505859375Q16.96680234375,17.2215505859375,16.909902343749998,17.245150585937502Q16.85300234375,17.2686505859375,16.79270234375,17.2806505859375Q16.73230234375,17.2926505859375,16.67070234375,17.2926505859375Q16.54640234375,17.2926505859375,16.43160234375,17.245150585937502Q16.316702343750002,17.1975505859375,16.22880234375,17.1096505859375L2.89546034375,3.7762925859375Z" fill-rule="evenodd" fill="#4C4C57" fill-opacity="1"/></g><g><path d="M17.11270234375,3.7762915859375Q17.20060234375,3.6883845859375,17.248202343750002,3.5735275859375Q17.29570234375,3.4586705859375,17.29570234375,3.3343505859375Q17.29570234375,3.2727934859375,17.28370234375,3.2124195859375Q17.27170234375,3.1520445859375,17.248202343750002,3.0951735859375Q17.22460234375,3.0383025859375,17.19040234375,2.9871195859375Q17.15620234375,2.9359365859375,17.11270234375,2.8924085859375Q17.06910234375,2.8488815859375,17.01800234375,2.8146825859374998Q16.96680234375,2.7804825859375,16.909902343749998,2.7569255859375Q16.85300234375,2.7333685859375,16.79270234375,2.7213595859375Q16.73230234375,2.7093505859375,16.67070234375,2.7093505859375Q16.54640234375,2.7093505859375,16.43160234375,2.7569255859375Q16.316702343750002,2.8045005859375,16.22880234375,2.8924085859375L16.228302343750002,2.8928665859375L2.89591834375,16.225250585937502L2.89546034375,16.2257505859375Q2.80755334375,16.313650585937502,2.75997734375,16.4285505859375Q2.71240234375,16.5433505859375,2.71240234375,16.6676505859375Q2.71240234375,16.7292505859375,2.72441134375,16.7896505859375Q2.73642034375,16.8499505859375,2.75997734375,16.906850585937498Q2.78353434375,16.9637505859375,2.8177343437499998,17.0149505859375Q2.85193334375,17.0660505859375,2.89546034375,17.1096505859375Q2.93898834375,17.1531505859375,2.99017134375,17.1873505859375Q3.04135434375,17.2215505859375,3.09822534375,17.245150585937502Q3.15509634375,17.2686505859375,3.21547134375,17.2806505859375Q3.27584524375,17.2926505859375,3.33740234375,17.2926505859375Q3.46172234375,17.2926505859375,3.57657934375,17.245150585937502Q3.69143634375,17.1975505859375,3.77934334375,17.1096505859375L17.11270234375,3.7762925859375L17.11270234375,3.7762915859375Z" fill-rule="evenodd" fill="#4C4C57" fill-opacity="1"/></g></g></svg>