<svg xmlns="http://www.w3.org/2000/svg" xmlns:xlink="http://www.w3.org/1999/xlink" fill="none" version="1.1" width="36" height="36" viewBox="0 0 36 36"><defs><clipPath id="master_svg0_1_09150"><rect x="0" y="0" width="36" height="36" rx="0"/></clipPath></defs><g clip-path="url(#master_svg0_1_09150)"><g><path d="M23.75,21.5L22.565,21.5L22.145,21.095C23.6658,19.331,24.5017,17.079,24.5,14.75C24.5,9.36522,20.1348,5,14.75,5C9.36523,5,5.00000214577,9.36522,5.00000214577,14.75C5.00000214577,20.1348,9.36522,24.5,14.75,24.5C17.165,24.5,19.384999999999998,23.615,21.095,22.145L21.5,22.565L21.5,23.75L29,31.235L31.235,29L23.75,21.5ZM14.75,21.5C11.015,21.5,8,18.485,8,14.75C8,11.015,11.015,8,14.75,8C18.485,8,21.5,11.015,21.5,14.75C21.5,18.485,18.485,21.5,14.75,21.5Z" fill="#000000" fill-opacity="1" style="mix-blend-mode:passthrough"/></g></g></svg>