<svg xmlns="http://www.w3.org/2000/svg" xmlns:xlink="http://www.w3.org/1999/xlink" fill="none" version="1.1" width="25" height="25" viewBox="0 0 25 25"><g><path d="M24.4463,0.572701C23.7084,-0.166688,22.5104,-0.166688,21.7726,0.572701L12.5,9.82631L3.22743,0.553738C2.48911,-0.184579,1.29206,-0.184579,0.553739,0.553739C-0.184579,1.29206,-0.184579,2.48911,0.553738,3.22743L9.82631,12.5L0.553738,21.7726C-0.184579,22.5109,-0.184579,23.7079,0.553738,24.4463C1.29206,25.1846,2.48911,25.1846,3.22742,24.4463L12.5,15.1737L21.7726,24.4463C22.5109,25.1846,23.7079,25.1846,24.4463,24.4463C25.1846,23.7079,25.1846,22.5109,24.4463,21.7726L15.1737,12.5L24.4463,3.22743C25.1668,2.50686,25.1668,1.29327,24.4463,0.572701Z" fill="#000000" fill-opacity="1" style="mix-blend-mode:passthrough"/></g></svg>