<svg xmlns="http://www.w3.org/2000/svg" xmlns:xlink="http://www.w3.org/1999/xlink" fill="none" version="1.1" width="30" height="29.838459014892578" viewBox="0 0 30 29.838459014892578"><g><path d="M29.4375,26.8125L22.3125,19.6875L22.125,19.5C23.4375,17.4375,24.375,14.8125,24.375,12.1875C24.375,5.4375,18.9375,0,12.1875,0C5.4375,0,0,5.4375,0,12.1875C0,18.9375,5.4375,24.375,12.1875,24.375C14.8125,24.375,17.4375,23.4375,19.3125,21.9375Q19.3125,22.125,19.5,22.125L26.625,29.25C27.375,30,28.6875,30,29.4375,29.4375C30.1875,28.6875,30.1875,27.5625,29.4375,26.8125ZM1.875,12.1875C1.875,6.5625,6.5625,1.875,12.1875,1.875C17.8125,1.875,22.5,6.5625,22.5,12.1875C22.5,17.8125,17.8125,22.5,12.1875,22.5C6.5625,22.5,1.875,17.8125,1.875,12.1875Z" fill="#26262C" fill-opacity="1"/></g></svg>