<svg xmlns="http://www.w3.org/2000/svg" xmlns:xlink="http://www.w3.org/1999/xlink" fill="none" version="1.1" width="10" height="10" viewBox="0 0 10 10"><defs><clipPath id="master_svg0_23_3213"><rect x="0" y="0" width="10" height="10" rx="0"/></clipPath></defs><g clip-path="url(#master_svg0_23_3213)"><g><path d="M6.083336656732559,3.3333302949905397L8.74999665673256,3.3333302949905397C9.21023665673256,3.3333302949905397,9.583336656732559,3.7064302949905397,9.583336656732559,4.166670294990539L9.583336656732559,5.04333029499054C9.583446656732558,5.15223029499054,9.56221665673256,5.26010029499054,9.520836656732559,5.3608302949905395L8.231246656732559,8.49208029499054C8.16691665673256,8.64821029499054,8.014696656732559,8.75007029499054,7.845836656732559,8.750000294990539L0.8333336567325592,8.750000294990539C0.6032146567325591,8.750000294990539,0.4166666567325592,8.56345029499054,0.4166666567325592,8.333330294990539L0.4166666567325592,4.166670294990539C0.4166666567325592,3.9365502949905395,0.6032146567325591,3.7500002949905396,0.8333336567325592,3.7500002949905396L2.284166656732559,3.7500002949905396C2.4195366567325594,3.7500302949905397,2.546476656732559,3.6843102949905395,2.6245866567325593,3.5737502949905395L4.89666665673256,0.35416669499053954C4.956016656732559,0.27005548499053955,5.067906656732559,0.24190609499053956,5.1599966567325595,0.28791669499053957L5.9158366567325595,0.6658332949905396C6.354096656732559,0.8848902949905395,6.580456656732559,1.3797702949905395,6.459586656732559,1.8545802949905394L6.083336656732559,3.3333302949905397ZM2.916666656732559,4.4116702949905395L2.916666656732559,7.916670294990539L7.56666665673256,7.916670294990539L8.74999665673256,5.04333029499054L8.74999665673256,4.166670294990539L6.083336656732559,4.166670294990539C5.539836656732559,4.16659029499054,5.141856656732559,3.6546502949905397,5.275836656732559,3.1279202949905396L5.65208665673256,1.6495802949905396C5.67634665673256,1.5545702949905396,5.631056656732559,1.4554902949905395,5.543336656732559,1.4116702949905395L5.2679166567325595,1.2741702949905396L3.305416656732559,4.05417029499054C3.2012466567325593,4.20167029499054,3.0679166567325593,4.322500294990539,2.916666656732559,4.4116702949905395ZM2.083336656732559,4.58333029499054L1.2499996567325593,4.58333029499054L1.2499996567325593,7.916670294990539L2.083336656732559,7.916670294990539L2.083336656732559,4.58333029499054Z" fill="#B3B3B3" fill-opacity="1" style="mix-blend-mode:passthrough"/></g></g></svg>