<?xml version="1.0" encoding="utf-8"?>
<!-- Generator: Adobe Illustrator 24.1.1, SVG Export Plug-In . SVG Version: 6.00 Build 0)  -->
<svg version="1.1" id="_24x24_On_Light_Recent" xmlns="http://www.w3.org/2000/svg" xmlns:xlink="http://www.w3.org/1999/xlink"
	 x="0px" y="0px" viewBox="0 0 800 800" style="enable-background:new 0 0 800 800;" xml:space="preserve">
<style type="text/css">
	.st0{fill:#3D3D3D;stroke:#3D3D3D;stroke-width:15.2;stroke-miterlimit:133.3333;}
</style>
<g id="SVGRepo_bgCarrier">
</g>
<g id="SVGRepo_tracerCarrier">
</g>
<g id="SVGRepo_iconCarrier">
	<path id="Shape" class="st0" d="M375,700c0-13.8,11.2-25,25-25c151.9,0,275-123.1,275-275c0-151.9-123.1-275-275-275
		c-151.9,0-275,123.1-275,275c0,67,24.4,131.6,68.7,181.8v-87.9c0-13.8,11.2-25,25-25c13.8,0,25,11.2,25,25v141.4
		c0,13.8-11.2,25-25,25c0,0,0,0,0,0H77.3c-13.8,0-25-11.2-25-25c0-13.8,11.2-25,25-25h75C36.1,473.5,52.9,268.4,189.7,152.3
		s341.9-99.4,458.1,37.4s99.4,341.9-37.4,458.1C551.6,697.7,477.1,725,400,725C386.2,725.1,375,713.9,375,700
		C375,700,375,700,375,700z M466.7,535.4L382.3,451c-4.7-4.7-7.3-11.1-7.3-17.7V260c0-13.8,11.2-25,25-25s25,11.2,25,25v163
		l81.2,81.2c9.9,9.6,10.2,25.4,0.6,35.4c-9.6,9.9-25.4,10.2-35.4,0.6c-0.2-0.2-0.4-0.4-0.6-0.6L466.7,535.4z"/>
</g>
</svg>
