<svg xmlns="http://www.w3.org/2000/svg" xmlns:xlink="http://www.w3.org/1999/xlink" fill="none" version="1.1" width="12" height="15" viewBox="0 0 12 15"><g><path d="M9.62903,10.2872C9.16124,10.2872,8.72549,10.4223,8.35807,10.6547L4.64986,8.08172C4.70939,7.87518,4.74194,7.65732,4.74194,7.43181C4.74194,7.20626,4.70939,6.98841,4.64986,6.7819L8.25796,4.27831C8.6451,4.55161,9.11796,4.71285,9.629,4.71285C10.9384,4.71285,12,3.65783,12,2.35644C12,1.05505,10.9385,0,9.62903,0C8.3196,0,7.25806,1.05501,7.25806,2.35641C7.25806,2.52828,7.27709,2.69567,7.31223,2.85708L3.61251,5.42425C3.25137,5.20319,2.82626,5.0754,2.37097,5.0754C1.06153,5.0754,0,6.13042,0,7.43181C0,8.7332,1.0615,9.78821,2.37097,9.78821C2.82623,9.78821,3.25137,9.66043,3.61251,9.43937L7.3408,12.0264C7.28719,12.2232,7.25807,12.43,7.25807,12.6436C7.25807,13.945,8.3196,15,9.62903,15C10.9385,15,12,13.945,12,12.6436C12,11.3422,10.9385,10.2872,9.62903,10.2872Z" fill="#D8D8D8" fill-opacity="1" style="mix-blend-mode:passthrough"/></g></svg>