<svg xmlns="http://www.w3.org/2000/svg" xmlns:xlink="http://www.w3.org/1999/xlink" fill="none" version="1.1" width="32" height="32" viewBox="0 0 32 32"><defs><clipPath id="master_svg0_57_6169"><rect x="0" y="0" width="32" height="32" rx="0"/></clipPath></defs><g clip-path="url(#master_svg0_57_6169)"><g><path d="M16,32C20.4182,32,24.4182,30.2091,27.3137,27.3137C30.2091,24.4182,32,20.4182,32,16C32,11.5818,30.2091,7.58176,27.3137,4.68629C24.4182,1.79086,20.4182,0,16,0C11.5818,0,7.58176,1.79086,4.68629,4.68629C1.79086,7.58176,0,11.5818,0,16C0,20.4182,1.79086,24.4182,4.68629,27.3137C7.58176,30.2091,11.5818,32,16,32Z" fill="#0ED951" fill-opacity="1"/></g><g><path d="M23.374290551757813,12.707107Q23.514990551757812,12.566455,23.591090551757812,12.382683Q23.667190551757812,12.198912,23.667190551757812,12Q23.667190551757812,11.9015086,23.647990551757815,11.80491Q23.628790551757813,11.708311,23.591090551757812,11.617317Q23.553390551757815,11.526322,23.49869055175781,11.44443Q23.44389055175781,11.362537,23.374290551757813,11.292893Q23.304690551757812,11.223249,23.22279055175781,11.16853Q23.140890551757813,11.113812,23.049890551757812,11.076121Q22.95889055175781,11.03843,22.862290551757813,11.019214999999999Q22.765690551757814,11,22.667190551757812,11Q22.46829055175781,11,22.284490551757813,11.07612Q22.100690551757815,11.152241,21.960090551757812,11.292893L21.959690551757813,11.293268L14.667190551757812,18.58579L11.374416551757813,15.29301L11.374297551757813,15.29289Q11.233644551757813,15.152239999999999,11.049873551757813,15.07612Q10.866102551757812,15,10.667190551757812,15Q10.568699151757812,15,10.472100551757812,15.019210000000001Q10.375501551757813,15.03843,10.284507551757812,15.07612Q10.193512551757813,15.11381,10.111620551757813,15.16853Q10.029727551757812,15.22325,9.960083551757812,15.29289Q9.890439551757812,15.36254,9.835720551757813,15.44443Q9.781002551757812,15.52632,9.743311551757813,15.61732Q9.705620551757812,15.70831,9.686405551757812,15.80491Q9.667190551757812,15.90151,9.667190551757812,16Q9.667190551757812,16.198909999999998,9.743310551757812,16.38268Q9.819431551757813,16.56645,9.960083551757812,16.70711L13.960080551757812,20.70711Q14.029730551757812,20.77675,14.111620551757813,20.83147Q14.193510551757813,20.88619,14.284510551757812,20.92388Q14.375500551757813,20.961570000000002,14.472100551757812,20.98078Q14.568700551757813,21,14.667190551757812,21Q14.765680551757812,21,14.862280551757813,20.98078Q14.958880551757812,20.961570000000002,15.049870551757813,20.92388Q15.140870551757812,20.88619,15.222760551757812,20.83147Q15.304650551757813,20.77675,15.374300551757813,20.70711L23.37389055175781,12.707482L23.374290551757813,12.707107L23.374290551757813,12.707107Z" fill-rule="evenodd" fill="#FFFFFF" fill-opacity="1"/></g></g></svg>