<svg xmlns="http://www.w3.org/2000/svg" xmlns:xlink="http://www.w3.org/1999/xlink" fill="none" version="1.1" width="16.66666603088379" height="16.66666603088379" viewBox="0 0 16.66666603088379 16.66666603088379"><g><path d="M8.325,0C3.725,0,0,3.73333,0,8.33333C0,12.9333,3.725,16.6667,8.325,16.6667C12.9333,16.6667,16.6667,12.9333,16.6667,8.33333C16.6667,3.73333,12.9333,0,8.325,0ZM8.33333,15C4.65,15,1.66667,12.0167,1.66667,8.33333C1.66667,4.65,4.65,1.66667,8.33333,1.66667C12.0167,1.66667,15,4.65,15,8.33333C15,12.0167,12.0167,15,8.33333,15ZM8.15,4.16667L8.1,4.16667C7.76667,4.16667,7.5,4.43333,7.5,4.76667L7.5,8.7C7.5,8.99167,7.65,9.26667,7.90833,9.41667L11.3667,11.4917C11.65,11.6583,12.0167,11.575,12.1833,11.2917C12.3597,11.0072,12.2653,10.6332,11.975,10.4667L8.75,8.55L8.75,4.76667C8.75,4.43333,8.48333,4.16667,8.15,4.16667Z" fill="#000000" fill-opacity="1" style="mix-blend-mode:passthrough"/></g></svg>