<svg xmlns="http://www.w3.org/2000/svg" xmlns:xlink="http://www.w3.org/1999/xlink" fill="none" version="1.1" width="20.833335876464844" height="20.833335876464844" viewBox="0 0 20.833335876464844 20.833335876464844"><g><path d="M5.20833,2.08333L5.20833,0L15.625,0L15.625,2.08333L20.8333,2.08333L20.8333,4.16667L18.75,4.16667L18.75,19.7917C18.75,20.367,18.2836,20.8333,17.7083,20.8333L3.125,20.8333C2.5497,20.8333,2.08333,20.367,2.08333,19.7917L2.08333,4.16667L0,4.16667L0,2.08333L5.20833,2.08333ZM4.16667,4.16667L4.16667,18.75L16.6667,18.75L16.6667,4.16667L4.16667,4.16667ZM7.29167,7.29167L9.375,7.29167L9.375,15.625L7.29167,15.625L7.29167,7.29167ZM11.4583,7.29167L13.5417,7.29167L13.5417,15.625L11.4583,15.625L11.4583,7.29167Z" fill="#D8D8D8" fill-opacity="1" style="mix-blend-mode:passthrough"/></g></svg>