<?xml version="1.0" encoding="UTF-8"?>
<svg id="_레이어_2" data-name="레이어 2" xmlns="http://www.w3.org/2000/svg" viewBox="0 0 462.82 512">
  <defs>
    <style>
      .cls-1 {
        stroke-width: 0px;
      }
    </style>
  </defs>
  <g id="Layer_1" data-name="Layer 1">
    <path class="cls-1" d="m230,0C143.12.75,71.64,70.3,68.61,157.13c-2.04,58.44,27.02,110.66,71.9,141.07C65.07,330.56,9.62,401.59.15,486.2c-1.54,13.76,9.25,25.8,23.1,25.8h0c11.84,0,21.79-8.9,23.08-20.67,10.23-93.31,88.96-165.53,185.07-165.53s174.84,72.22,185.07,165.53c1.29,11.77,11.25,20.67,23.08,20.67h0c13.85,0,24.64-12.04,23.1-25.8-9.47-84.61-64.92-155.64-140.36-188,43.4-29.4,72-79.2,72-135.3C394.31,72.73,320.34-.76,230,0Zm1.41,46.49c64.5,0,116.4,51.8,116.4,116.4s-51.9,116.4-116.4,116.4-116.4-51.8-116.4-116.4,51.9-116.4,116.4-116.4Z"/>
  </g>
</svg>