<svg xmlns="http://www.w3.org/2000/svg" viewBox="0 0 58 58"><defs><style>.cls-1,.cls-2{fill:none;stroke:#afafaf;stroke-linecap:round;stroke-linejoin:round;}.cls-1{stroke-width:5px;}.cls-2{stroke-width:7px;}</style></defs><g id="레이어_2" data-name="레이어 2"><g id="Layer_1" data-name="Layer 1"><line class="cls-1" x1="18.6" y1="24.3" x2="24.88" y2="24.3"/><line class="cls-1" x1="24.88" y1="24.3" x2="31.1" y2="24.3"/><line class="cls-1" x1="24.88" y1="24.3" x2="24.88" y2="18.08"/><path class="cls-2" d="M40.2,40.2A20.77,20.77,0,0,0,46.5,25,20.61,20.61,0,0,0,40.2,9.8,20.77,20.77,0,0,0,25,3.5,20.77,20.77,0,0,0,9.8,9.8,20.61,20.61,0,0,0,3.5,25,20.77,20.77,0,0,0,9.8,40.2,20.77,20.77,0,0,0,25,46.5a20.77,20.77,0,0,0,15.2-6.3"/><line class="cls-1" x1="24.88" y1="30.52" x2="24.88" y2="24.3"/><line class="cls-2" x1="54.5" y1="54.5" x2="40.2" y2="40.2"/></g></g></svg>